# xmcd CD Database Entry
#
# Track frame offsets:
# 150
# 34232
# 53030
# 68715
# 90701
# 125647
# 177922
# 200494
# 212806
# 250195
# 282086
# 290701
# 304839
# 344005
#
# Disc length: 4783 seconds
#
# Revision: 2
# Processed by: cddbd v1.4PL0 Copyright (c) Steve Scherf et al.
# Submitted via: tcd 2.0b
#
DISCID=de12ad0e
DTITLE=Genesis and andere
DYEAR=1900
DGENRE=
TTITLE0=Watcher of the Skies 1975
TTITLE1=Tito and Tarantula After Dark
TTITLE2=Vicky Vomit Arbeitslos und Spass dabei
TTITLE3=Franz. Neger, Tracy Chapman, Peter - Seven Seconds
TTITLE4=Genesis the return of the giang hogweed
TTITLE5=Genesis - The Musical Box
TTITLE6=Carpet Crawlers 1977
TTITLE7=Vicky Vomit - Aldi schönen Sachen
TTITLE8=Genesis - Eleventh Earl of Mar
TTITLE9=Georg Kreisler - Musikkritiker
TTITLE10=Kommunistendreckschwein - Ich trage eine Fahne
TTITLE11=Anthony Phillips - Only your love (demo)
TTITLE12=Genesis Get' em out by friday
TTITLE13=Rollende Steine - Ruby Tuesday
EXTD=
EXTT0=
EXTT1=
EXTT2=
EXTT3=
EXTT4=
EXTT5=
EXTT6=
EXTT7=
EXTT8=
EXTT9=
EXTT10=
EXTT11=
EXTT12=
EXTT13=
PLAYORDER=
